<svg height="512" viewBox="0 0 128 128" width="512" xmlns="http://www.w3.org/2000/svg"><path d="m86.853 46.9a5.75 5.75 0 0 0 -9.816-4.066l-13.037 13.035-13.037-13.037a5.75 5.75 0 1 0 -8.131 8.132l13.036 13.036-13.036 13.036a5.75 5.75 0 1 0 8.131 8.132l13.037-13.037 13.037 13.037a5.75 5.75 0 1 0 8.131-8.132l-13.036-13.036 13.036-13.036a5.713 5.713 0 0 0 1.685-4.064zm-4.16 1.591-14.273 14.272a1.748 1.748 0 0 0 0 2.474l14.273 14.274a2.248 2.248 0 0 1 0 3.183 2.3 2.3 0 0 1 -3.18 0l-14.276-14.275a1.75 1.75 0 0 0 -2.474 0l-14.276 14.275a2.3 2.3 0 0 1 -3.18 0 2.248 2.248 0 0 1 0-3.182l14.273-14.275a1.748 1.748 0 0 0 0-2.474l-14.273-14.274a2.248 2.248 0 0 1 0-3.183 2.3 2.3 0 0 1 3.18 0l14.276 14.275a1.75 1.75 0 0 0 2.474 0l14.276-14.275a2.3 2.3 0 0 1 3.18 0 2.248 2.248 0 0 1 0 3.182z"/><path d="m64 17.25a46.75 46.75 0 1 0 46.75 46.75 46.8 46.8 0 0 0 -46.75-46.75zm0 90a43.25 43.25 0 1 1 43.25-43.25 43.3 43.3 0 0 1 -43.25 43.25z"/></svg>